# xmcd
#
# Track frame offsets:
# 150
# 12175
# 24525
# 38332
# 51717
# 65510
# 78397
# 90767
# 103485
# 116300
# 130122
# 143597
# 157497
# 168435
# 180925
# 193097
# 204167
# 217587
# 232775
# 245855
#
# Disc length: 3408 seconds
#
# Revision: 1
# Processed by: cddbd v1.4PL0 Copyright (c) Steve Scherf et al.
# Submitted via: CdCzar 4.3c
#
DISCID=030d4e14
DTITLE=Various Artist - Ladies Sing the Blues - Roots of Rock 'N' Roll V.5
DYEAR=1900
DGENRE=blues
TTITLE0=Miss Rhapsody - Blues in My Heart
TTITLE1=Miss Rhapsody - Sugar
TTITLE2=Miss Rhapsody - Downhearted Blues
TTITLE3=Miss Rhapsody - Night Before Judgement Day
TTITLE4=Albinia Jones - Evil Gal Blues
TTITLE5=Albinia Jones - Salty Papa
TTITLE6=Albinia Jones - Albinia's Blues
TTITLE7=Albinia Jones - What's the Matter With Me?
TTITLE8=Linda Hopkins - Walkin' and Talkin' Blues
TTITLE9=Linda Hopkins - Sad and Lonely
TTITLE10=Linda Hopkins - Me and Dirty Blues
TTITLE11=Linda Hopkins - Baby Please Come Home
TTITLE12=Little Esther - Longing in My Heart
TTITLE13=Little Esther - You Can Bet Your Life I Do
TTITLE14=Little Esther - If It's News to You
TTITLE15=Little Esther - So Good
TTITLE16=Big Maybelle - Pitiful
TTITLE17=Big Maybelle - So Long
TTITLE18=Big Maybelle - Ramblin' Blues
TTITLE19=Big Maybelle - Good Man Is Hard to Find
EXTD=
EXTT0=
EXTT1=
EXTT2=
EXTT3=
EXTT4=
EXTT5=
EXTT6=
EXTT7=
EXTT8=
EXTT9=
EXTT10=
EXTT11=
EXTT12=
EXTT13=
EXTT14=
EXTT15=
EXTT16=
EXTT17=
EXTT18=
EXTT19=
PLAYORDER=
